<?xml version="1.0" encoding="utf-8"?>
<!-- Generator: Adobe Illustrator 28.3.0, SVG Export Plug-In . SVG Version: 6.00 Build 0)  -->
<svg version="1.1" id="Layer_1" xmlns="http://www.w3.org/2000/svg" xmlns:xlink="http://www.w3.org/1999/xlink" x="0px" y="0px"
	 viewBox="0 0 1550.35 1068.98" style="enable-background:new 0 0 1550.35 1068.98;" xml:space="preserve">
<g>
	<g>
		<g>
			<path d="M731.39,4.78v562.79L79.46,339.58v223.2H0V0l651.92,227.98V4.78H731.39z"/>
		</g>
		<g>
			<path d="M1497.64,213.64c0,142.69-77.03,212.04-244.07,212.04H862.74v137.11h-79.46v-558h445.97
				C1427.1,4.78,1497.64,51.02,1497.64,213.64z M1234.11,355.53c57.57,0,70.54-10.36,70.54-37.47c0-27.9-19.46-35.87-70.54-35.87
				H862.74v73.34H1234.11z"/>
		</g>
		<g>
			<path d="M731.39,503v562.79L79.46,837.8V1061H0V498.22L651.92,726.2V503H731.39z"/>
		</g>
		<g>
			<path d="M1203.3,998.83v-90.88H922.75v-54.21h627.6v194.5c-73.79,11.16-181.63,20.73-304.07,20.73
				c-384.34,0-471.1-62.18-471.1-282.99c0-185.74,68.92-290.96,445.16-290.96c115.14,0,266.77,8.77,330.02,13.55v264.65
				c-73.79-4.78-216.5-8.77-330.02-8.77c-325.15,0-341.37,26.31-341.37,109.21S904.1,995.64,1203.3,998.83z"/>
		</g>
	</g>
</g>
<rect x="1576.29" y="808.81" style="fill:none;" width="0" height="3.37"/>
</svg>
